<svg width="250" height="250" viewBox="0 0 250 250" fill="none" xmlns="http://www.w3.org/2000/svg">
<path fill-rule="evenodd" clip-rule="evenodd" d="M77.0384 48.7739C77.6894 48.7697 78.3404 48.7654 79.0111 48.761C79.7281 48.7589 80.4451 48.757 81.1621 48.7553C81.8941 48.7527 82.626 48.7502 83.358 48.7476C84.896 48.743 86.434 48.7404 87.972 48.7388C89.9386 48.7364 91.905 48.7257 93.8715 48.7131C95.3853 48.7048 96.899 48.7025 98.4128 48.7018C99.1374 48.7005 99.862 48.6969 100.587 48.6911C101.604 48.6835 102.621 48.6852 103.638 48.6872C104.216 48.6856 104.794 48.684 105.39 48.6823C107.7 48.9164 109.352 49.6529 111.062 51.038C112.821 53.5887 114 56.505 114 59.5027C114.531 59.4769 115.062 59.4512 115.609 59.4246C122.419 59.1931 122.419 59.1931 125.26 61.0638C125.504 61.2813 125.748 61.4988 126 61.7229C126.388 62.0618 126.388 62.0618 126.783 62.4075C127.84 64.0169 127.717 65.6032 127.71 67.4157C127.714 67.8108 127.718 68.206 127.723 68.6131C127.734 69.9192 127.735 71.225 127.734 72.531C127.738 73.4391 127.742 74.3472 127.746 75.2552C127.753 77.1586 127.753 79.0619 127.75 80.9653C127.748 83.4043 127.763 85.8429 127.783 88.2818C127.796 90.1572 127.797 92.0325 127.796 93.9079C127.796 94.8071 127.801 95.7064 127.81 96.6055C127.821 97.8632 127.816 99.1201 127.808 100.378C127.814 100.749 127.821 101.12 127.828 101.503C127.796 103.428 127.686 104.142 126.297 105.71C125 106.572 125 106.572 123.937 106.572C122.243 105.77 121.61 105.09 121 103.464C120.954 102.241 120.937 101.03 120.943 99.8068C120.943 99.4342 120.943 99.0615 120.943 98.6775C120.943 97.445 120.947 96.2124 120.951 94.9798C120.952 94.1256 120.953 93.2713 120.953 92.417C120.955 90.1678 120.96 87.9187 120.966 85.6695C120.971 83.3747 120.973 81.0799 120.976 78.785C120.981 74.2818 120.989 69.7786 121 65.2753C120.457 65.2959 119.915 65.3166 119.355 65.3378C118.633 65.3545 117.91 65.3706 117.187 65.3864C116.653 65.4087 116.653 65.4087 116.107 65.4314C113.496 65.474 112.079 65.0176 110 63.4991C108.311 61.7076 107.704 60.1339 107.295 57.8791C106.954 56.5169 106.954 56.5169 105.5 54.1741C93.125 53.9543 93.125 53.9543 80.5 53.73C80.995 55.0489 81.49 56.3677 82 57.7265C82 58.3126 82 58.8988 82 59.5027C82.6033 59.4872 83.2065 59.4718 83.8281 59.4559C84.6354 59.4434 85.4427 59.4312 86.25 59.4194C86.6457 59.4083 87.0415 59.3971 87.4492 59.3856C90.9061 59.3479 93.9616 59.8366 96.5625 62.0282C98.9302 64.7014 100.461 68.7103 101.223 72.0131C101.314 72.2807 101.406 72.5484 101.5 72.8242C102.559 73.2523 102.559 73.2523 103.844 73.4625C106.197 73.9161 107.877 74.8013 109.5 76.3766C110.344 77.7382 110.344 77.7382 111 79.2907C111.184 79.7226 111.184 79.7226 111.371 80.1634C112.637 83.2151 113.655 86.336 114.678 89.457C115.744 92.6901 116.923 95.8911 118.098 99.094C121.256 107.759 121.256 107.759 121 110.568C117.458 109.212 115.02 107.74 113.418 104.511C112.883 103.172 112.4 101.827 111.937 100.466C111.614 99.5525 111.29 98.639 110.965 97.7257C110.728 97.0514 110.728 97.0514 110.487 96.3636C110.012 95.0584 109.495 93.7735 108.959 92.4873C107.976 90.1246 107.182 87.7367 106.423 85.3113C106.274 84.8486 106.274 84.8486 106.123 84.3764C106.039 84.1075 105.955 83.8386 105.868 83.5616C105.34 82.1716 104.651 80.8334 104 79.4849C90.635 79.4849 77.27 79.4849 63.5 79.4849C65.975 85.4197 65.975 85.4197 68.5 91.4743C69.5639 94.1612 70.6264 96.8467 71.6699 99.5396C71.9507 100.233 72.2685 100.915 72.5937 101.594C73 102.576 73 102.576 73 104.352C73.2781 104.349 73.5563 104.346 73.8429 104.343C76.755 104.313 79.6671 104.293 82.5795 104.279C83.6643 104.272 84.7491 104.263 85.8338 104.251C87.399 104.235 88.964 104.227 90.5293 104.222C91.0092 104.215 91.489 104.208 91.9834 104.201C95.7496 104.2 99.3742 104.541 102.156 106.988C103.979 109.088 104.693 111.606 105.5 114.121C105.665 114.56 105.83 115 106 115.453C106.651 115.432 107.302 115.412 107.973 115.391C108.836 115.374 109.699 115.358 110.562 115.342C110.99 115.327 111.418 115.312 111.859 115.297C114.672 115.258 116.293 115.526 118.5 117.229C119.615 118.276 119.989 118.766 120.058 120.225C120 120.685 119.941 121.144 119.881 121.618C119.821 122.132 119.761 122.647 119.7 123.177C119.634 123.706 119.568 124.234 119.5 124.778C119.407 125.757 119.316 126.737 119.229 127.716C118.412 136.019 117.284 144.273 116.035 152.533C115.381 156.9 114.827 161.227 114.608 165.63C114.5 166.963 114.5 166.963 114 168.295C113.925 169.08 113.864 169.867 113.812 170.654C113.521 173.676 112.567 175.576 110 177.62C108.419 177.012 108.004 176.737 107 175.4C106.623 172.159 107.145 168.87 107.625 165.658C107.765 164.673 107.904 163.687 108.043 162.701C108.118 162.172 108.192 161.643 108.269 161.098C108.643 158.372 108.979 155.642 109.315 152.912C110.131 146.297 110.979 139.686 111.844 133.076C111.925 132.452 111.925 132.452 112.008 131.815C112.163 130.628 112.319 129.44 112.475 128.252C112.52 127.901 112.566 127.551 112.613 127.189C112.876 125.196 113.171 123.211 113.5 121.226C113.005 121.246 112.51 121.267 112 121.288C104.774 121.502 104.774 121.502 102 119.449C99.2101 116.741 98.5838 114.225 97 110.568C87.925 110.422 78.85 110.275 69.5 110.124C69.995 112.103 69.995 112.103 70.5 114.121C71.2476 114.1 71.9953 114.08 72.7656 114.058C73.7604 114.042 74.7552 114.026 75.75 114.01C76.2411 113.995 76.7323 113.98 77.2383 113.965C80.4388 113.927 82.8784 114.183 85.5 115.897C87.6196 117.743 88.5699 119.513 89.4062 121.975C89.5142 122.269 89.6222 122.564 89.7334 122.867C90.1899 124.145 90.5 125.206 90.5 126.554C90.799 126.637 91.0981 126.719 91.4062 126.804C93.7316 128.161 94.3901 131.367 95 133.659C95.0158 134.547 95.0182 135.435 95 136.323C95.5066 136.303 96.0132 136.282 96.5351 136.261C97.2109 136.244 97.8867 136.228 98.5625 136.212C98.8951 136.197 99.2276 136.183 99.5703 136.167C102.141 136.122 103.533 136.659 105.5 138.099C106.523 139.463 106.625 139.729 106.621 141.263C106.623 141.635 106.624 142.007 106.626 142.39C106.622 142.795 106.619 143.201 106.615 143.619C106.615 144.046 106.615 144.474 106.615 144.914C106.613 146.325 106.604 147.735 106.594 149.145C106.59 150.119 106.587 151.094 106.584 152.068C106.541 161.773 106.281 171.47 106 181.172C114.25 181.026 122.5 180.879 131 180.728C129.68 179.703 128.36 178.677 127 177.62C125.385 175.118 124.439 173.175 124.43 170.27C124.427 169.757 124.424 169.244 124.421 168.715C124.42 167.87 124.42 167.87 124.419 167.008C124.417 166.409 124.415 165.811 124.412 165.212C124.405 163.584 124.402 161.956 124.4 160.329C124.398 159.311 124.396 158.294 124.394 157.277C124.387 154.092 124.382 150.908 124.381 147.723C124.378 144.05 124.37 140.377 124.355 136.703C124.344 133.863 124.339 131.022 124.339 128.181C124.338 126.485 124.335 124.789 124.326 123.093C124.318 121.497 124.317 119.9 124.321 118.304C124.322 117.442 124.315 116.579 124.308 115.717C124.329 111.733 124.885 109.153 128 106.128C129.523 105.226 129.801 105.13 131.506 105.153C132.074 105.157 132.074 105.157 132.653 105.162C133.243 105.173 133.243 105.173 133.844 105.184C134.442 105.19 134.442 105.19 135.052 105.196C136.035 105.207 137.017 105.223 138 105.24C138.034 104.956 138.068 104.672 138.104 104.379C138.778 102.065 140.21 100.035 141.513 97.9546C142.789 95.9869 142.789 95.9869 142.635 93.8333C142.321 93.325 142.321 93.325 142 92.8064C141.595 90.2329 142.748 88.479 144.094 86.2844C144.287 85.9476 144.481 85.6107 144.681 85.2636C145.87 83.2852 146.762 82.3665 149 81.2611C149.765 80.161 149.765 80.161 150.344 78.8744C154.531 70.9883 162.192 64.1443 171.469 61.0846C172.308 60.8402 173.152 60.6094 174 60.3908C174.742 60.1547 174.742 60.1547 175.5 59.9138C182.245 58.2258 191.598 58.8016 198 61.2789C198.322 61.4028 198.645 61.5267 198.977 61.6544C208.037 65.2103 214.784 70.5412 219 78.5968C219.821 80.4954 220.452 82.3959 221 84.3695C221.112 84.7421 221.224 85.1148 221.34 85.4987C223.574 93.8286 221.322 103.158 216.428 110.388C214.675 112.908 212.944 115.174 210.5 117.229C209.943 117.751 209.943 117.751 209.375 118.284C204.333 122.558 204.333 122.558 202.5 122.558C202.469 122.878 202.438 123.199 202.406 123.529C201.775 125.47 200.341 126.537 198.437 127.581C197.5 127.886 197.5 127.886 196 127.886C195.97 130.769 195.971 133.652 195.994 136.535C195.998 137.514 195.995 138.493 195.985 139.471C195.685 146.68 195.685 146.68 199.524 152.715C203.241 156.243 203.261 161.588 203.168 166.115C202.885 171.522 199.647 176.224 195.354 179.946C194.421 180.677 193.472 181.372 192.5 182.06C192.815 182.072 193.131 182.083 193.456 182.094C194.877 182.145 196.298 182.2 197.719 182.255C198.464 182.281 198.464 182.281 199.224 182.308C199.696 182.326 200.168 182.345 200.654 182.364C201.092 182.38 201.529 182.397 201.979 182.413C203 182.504 203 182.504 203.5 182.949C203.549 183.688 203.565 184.428 203.562 185.169C203.564 185.572 203.565 185.975 203.566 186.39C203.5 187.389 203.5 187.389 203 187.833C202.151 187.877 201.3 187.889 200.449 187.889C199.614 187.891 199.614 187.891 198.763 187.892C198.144 187.891 197.526 187.89 196.888 187.889C196.237 187.89 195.585 187.891 194.914 187.892C193.098 187.893 191.281 187.892 189.465 187.891C187.509 187.89 185.553 187.892 183.598 187.893C179.763 187.895 175.928 187.894 172.094 187.893C168.979 187.892 165.864 187.892 162.749 187.892C162.307 187.893 161.864 187.893 161.408 187.893C160.51 187.893 159.611 187.893 158.712 187.893C150.275 187.894 141.837 187.893 133.4 187.891C126.152 187.889 118.904 187.889 111.656 187.891C103.25 187.893 94.8436 187.894 86.4375 187.893C85.542 187.893 84.6465 187.893 83.751 187.892C83.3103 187.892 82.8697 187.892 82.4157 187.892C79.3025 187.892 76.1894 187.893 73.0763 187.894C69.2852 187.895 65.494 187.895 61.7029 187.892C59.7667 187.891 57.8305 187.891 55.8942 187.892C53.8001 187.894 51.7061 187.892 49.612 187.889C48.9932 187.89 48.3744 187.891 47.7368 187.892C47.1805 187.891 46.6242 187.89 46.0511 187.889C45.567 187.889 45.083 187.889 44.5842 187.889C43.5 187.833 43.5 187.833 43 187.389C42.9509 186.65 42.9351 185.909 42.9375 185.169C42.9362 184.766 42.9349 184.363 42.9336 183.948C43 182.949 43 182.949 43.5 182.504C44.1713 182.466 44.8449 182.457 45.5176 182.461C45.922 182.463 46.3264 182.464 46.7431 182.465C47.1682 182.469 47.5933 182.473 48.0312 182.477C48.4582 182.479 48.8852 182.481 49.3252 182.483C50.3835 182.488 51.4417 182.496 52.5 182.504C51.2023 179.954 49.9043 177.404 48.6059 174.853C48.1656 173.988 47.7253 173.123 47.2851 172.258C44.3186 166.423 44.3186 166.423 41.3105 160.606C40.0417 158.174 38.8306 155.723 37.6416 153.26C37.0104 151.791 37.0104 151.791 36 150.533C35.6511 148.43 35.8148 146.884 36.8437 144.955C37.9158 143.944 38.5294 143.869 40.1133 143.711C41.7534 143.706 43.3653 143.757 45 143.872C44.8788 143.543 44.7576 143.214 44.6328 142.875C43.5991 139.99 42.6889 137.104 41.9062 134.159C41.8229 133.847 41.7396 133.536 41.6538 133.216C41.1558 131.303 40.6852 129.402 40.5 127.442C41.5 126.554 41.5 126.554 42.6692 126.453C43.384 126.46 43.384 126.46 44.1133 126.467C44.8867 126.472 44.8867 126.472 45.6758 126.476C46.4859 126.487 46.4859 126.487 47.3125 126.499C47.8565 126.503 48.4005 126.507 48.9609 126.511C50.3074 126.521 51.6536 126.536 53 126.554C52.8566 126.216 52.7132 125.877 52.5655 125.529C49.5304 118.321 49.5304 118.321 50.5 115.009C52.2232 113.989 52.8553 114.016 54.8808 114.034C55.7195 114.038 55.7195 114.038 56.5752 114.043C57.4506 114.054 57.4506 114.054 58.3437 114.065C59.2279 114.071 59.2279 114.071 60.1299 114.077C61.5867 114.088 63.0433 114.103 64.5 114.121C64.257 113.723 64.014 113.325 63.7637 112.915C62.7678 111.013 62.6115 109.519 63 107.46C63.8812 106.118 64.3725 105.403 66.0703 104.962C66.3771 104.907 66.6839 104.852 67 104.796C65.3292 100.475 63.6436 96.1666 61.75 91.9183C59.8578 87.6697 58.1641 83.3635 56.5 79.0409C56.3047 78.5417 56.1094 78.0426 55.9082 77.5283C55.4798 76.3196 55.3426 75.4146 55.5 74.1563C57.0105 72.8149 58.7818 73.061 60.8125 72.9907C61.2134 72.9735 61.6143 72.9564 62.0273 72.9387C63.018 72.8968 64.009 72.86 65 72.8242C64.8095 72.3167 64.8095 72.3167 64.6152 71.7991C64.257 70.8447 63.8996 69.8901 63.543 68.9353C63.2186 68.0753 62.8896 67.2167 62.5508 66.3612C61.766 64.3669 61.1459 62.5077 61 60.3908C62 59.5027 62 59.5027 63.3987 59.4019C63.98 59.4065 64.5612 59.4112 65.1601 59.416C66.1028 59.4203 66.1028 59.4203 67.0644 59.4246C68.0535 59.4358 68.0535 59.4358 69.0625 59.4472C69.7324 59.4516 70.4023 59.4557 71.0723 59.4593C72.7149 59.4698 74.3574 59.4845 76 59.5027C75.7776 58.9515 75.5553 58.4002 75.3262 57.8323C75.04 57.1033 74.7542 56.3742 74.4687 55.645C74.3215 55.2824 74.1742 54.9198 74.0224 54.5462C72.7085 51.1553 72.7085 51.1553 73.5 49.2895C74.4077 48.4834 75.817 48.7804 77.0384 48.7739Z" fill="#09182B"/>
<path fill-rule="evenodd" clip-rule="evenodd" d="M130.5 123.002C150.135 123.002 169.77 123.002 190 123.002C190 129.889 190 136.776 190 143.872C187 143.428 187 143.428 185.352 142.967C179.253 141.561 172.784 142.205 167.311 144.902C161.974 147.837 157.76 152.057 155.967 157.471C155.708 158.482 155.469 159.497 155.254 160.515C155 161.634 155 161.634 154.5 162.078C153.748 162.119 152.994 162.13 152.24 162.129C151.753 162.129 151.266 162.128 150.764 162.128C150.248 162.126 149.732 162.124 149.201 162.122C148.494 162.121 148.494 162.121 147.773 162.12C146.005 162.118 144.237 162.112 142.469 162.106C138.519 162.097 134.569 162.088 130.5 162.078C130.5 149.183 130.5 136.288 130.5 123.002Z" fill="#FBFCFB"/>
<path fill-rule="evenodd" clip-rule="evenodd" d="M69.5 110.124C78.575 110.124 87.65 110.124 97 110.124C99.1449 113.934 99.1449 113.934 99.9688 115.758C101.001 117.836 102.248 119.336 104.586 120.377C106.352 120.882 108.067 120.984 109.906 121.059C110.426 121.085 110.426 121.085 110.956 121.111C111.804 121.153 112.652 121.19 113.5 121.226C113.183 125.701 112.697 130.148 112.125 134.603C112.038 135.287 111.951 135.972 111.865 136.657C111.629 138.515 111.391 140.373 111.153 142.23C110.939 143.902 110.726 145.575 110.514 147.247C110.035 151.004 109.556 154.761 109.074 158.517C109.026 158.894 108.978 159.271 108.928 159.659C108.694 161.481 108.456 163.302 108.209 165.122C108.163 165.463 108.117 165.805 108.069 166.157C107.983 166.79 107.897 167.423 107.809 168.055C106.984 172.394 106.984 172.394 108.26 176.418C108.504 176.668 108.748 176.918 109 177.176C110.687 176.556 111.521 175.878 112.5 174.512C113.001 173.176 113.152 172.052 113.281 170.654C113.344 169.992 113.344 169.992 113.408 169.317C113.438 168.979 113.469 168.642 113.5 168.295C113.665 168.295 113.83 168.295 114 168.295C114.165 169.174 114.33 170.053 114.5 170.959C114.586 170.451 114.671 169.942 114.76 169.419C115.08 167.522 115.403 165.627 115.727 163.731C115.866 162.912 116.005 162.094 116.143 161.275C116.342 160.094 116.544 158.913 116.746 157.733C116.837 157.189 116.837 157.189 116.929 156.634C117.292 154.541 117.824 152.567 118.5 150.533C118.623 149.893 118.727 149.25 118.803 148.604C118.849 148.242 118.896 147.88 118.943 147.507C118.993 147.113 119.043 146.72 119.094 146.314C119.789 141.222 120.768 136.182 121.781 131.133C121.858 130.745 121.935 130.356 122.014 129.955C122.236 128.838 122.462 127.721 122.689 126.604C122.756 126.267 122.823 125.93 122.891 125.582C123.224 123.983 123.638 122.655 124.5 121.226C124.501 121.618 124.501 121.618 124.502 122.019C124.521 128.402 124.55 134.784 124.592 141.167C124.612 144.253 124.628 147.34 124.635 150.427C124.643 153.407 124.66 156.386 124.684 159.366C124.692 160.502 124.696 161.638 124.696 162.773C124.697 164.367 124.711 165.96 124.727 167.553C124.725 168.02 124.722 168.488 124.719 168.969C124.785 173.115 126.122 176.077 129.219 179.171C130.155 180.001 130.155 180.001 132 181.172C123.42 181.172 114.84 181.172 106 181.172C106.006 178.175 106.012 175.177 106.018 172.088C106.02 170.192 106.023 168.296 106.024 166.4C106.027 163.388 106.031 160.377 106.038 157.366C106.043 154.939 106.046 152.511 106.047 150.084C106.048 149.157 106.05 148.23 106.053 147.303C106.056 146.007 106.057 144.711 106.057 143.415C106.059 142.836 106.059 142.836 106.062 142.246C106.059 140.752 106.036 139.527 105.5 138.099C104.542 137.581 104.542 137.581 103.5 137.211C103.17 137.065 102.84 136.918 102.5 136.767C101.227 136.664 99.963 136.581 98.6875 136.518C98.1577 136.489 98.1577 136.489 97.6172 136.459C96.7449 136.412 95.8725 136.368 95 136.323C94.873 135.836 94.7461 135.349 94.6152 134.847C94.4416 134.201 94.2678 133.555 94.0938 132.91C94.0109 132.589 93.9281 132.269 93.8428 131.939C93.3386 130.089 92.7828 128.562 91.5 126.998C91.005 126.778 91.005 126.778 90.5 126.554C90.1508 125.812 90.1508 125.812 89.834 124.856C89.7131 124.509 89.5923 124.162 89.4678 123.804C89.2216 123.075 88.978 122.345 88.7373 121.615C87.6948 118.643 86.5744 116.724 83.4512 115.083C80.9861 114.273 78.3799 114.312 75.7812 114.26C75.2724 114.244 74.7635 114.229 74.2393 114.214C72.993 114.177 71.7465 114.148 70.5 114.121C70.17 112.802 69.84 111.483 69.5 110.124Z" fill="#FAFAFA"/>
<path fill-rule="evenodd" clip-rule="evenodd" d="M42.5 149.201C52.4 149.201 62.3 149.201 72.5 149.201C76.0202 155.974 76.0202 155.974 77.3125 158.609C77.4597 158.908 77.6068 159.207 77.7584 159.515C78.7219 161.484 79.6395 163.464 80.5222 165.462C81.6776 168.016 82.9948 170.511 84.2891 173.011C84.5082 173.435 84.7273 173.859 84.9531 174.296C85.4076 175.174 85.8634 176.051 86.3203 176.929C86.5369 177.349 86.7534 177.768 86.9766 178.201C87.1733 178.58 87.37 178.959 87.5728 179.35C88 180.284 88 180.284 88 181.172C78.265 181.172 68.53 181.172 58.5 181.172C51.3391 167.589 51.3391 167.589 48.5715 162.062C47.6503 160.229 46.7051 158.41 45.7266 156.6C45.5163 156.212 45.3061 155.823 45.0895 155.422C44.6859 154.679 44.2797 153.937 43.8705 153.197C43.6909 152.867 43.5112 152.536 43.3262 152.196C43.1663 151.906 43.0064 151.616 42.8417 151.318C42.5 150.533 42.5 150.533 42.5 149.201Z" fill="#FCFCFC"/>
<path fill-rule="evenodd" clip-rule="evenodd" d="M145.414 126.812C145.741 126.808 146.069 126.804 146.406 126.8C147.479 126.79 148.552 126.79 149.625 126.79C150.376 126.787 151.127 126.784 151.877 126.78C153.448 126.774 155.018 126.773 156.588 126.776C158.595 126.778 160.602 126.765 162.61 126.747C164.159 126.735 165.709 126.734 167.258 126.736C167.998 126.735 168.738 126.731 169.478 126.723C175.976 126.661 175.976 126.661 177.932 128.062C179.612 129.881 180.11 131.073 179.969 133.409C179.621 135.588 178.805 136.606 177 138.099C175.043 138.976 173.412 139.104 171.234 139.117C170.584 139.122 169.933 139.128 169.262 139.134C168.556 139.135 167.849 139.136 167.143 139.137C166.413 139.14 165.684 139.143 164.955 139.146C163.429 139.151 161.903 139.153 160.377 139.152C158.426 139.152 156.476 139.164 154.525 139.179C153.02 139.189 151.515 139.191 150.009 139.191C149.29 139.192 148.571 139.196 147.852 139.203C146.845 139.211 145.838 139.208 144.83 139.203C144.258 139.205 143.686 139.206 143.097 139.207C141.129 138.937 140.05 138.303 138.5 137.211C136.972 135.221 136.529 133.347 137 130.995C138.81 127.718 141.446 126.837 145.414 126.812Z" fill="#0A192D"/>
<path fill-rule="evenodd" clip-rule="evenodd" d="M49 134.991C58.57 134.991 68.14 134.991 78 134.991C79.3304 137.748 79.966 139.988 80.5293 142.892C81.0523 144.474 81.5229 145.111 83 146.092C84.0547 146.395 84.0547 146.395 85.125 146.425C85.7437 146.462 86.3625 146.499 87 146.536C87.7176 148.655 88.2634 150.735 88.6875 152.92C88.7803 153.396 88.7803 153.396 88.875 153.881C89.5361 157.309 90.1446 160.745 90.7551 164.18C91.3627 167.585 92.0277 170.977 92.7422 174.366C92.9633 175.633 93.0549 176.786 93 178.064C91.7729 176.974 91.4667 176.043 90.875 174.595C90.0532 172.65 89.1892 170.755 88.1875 168.878C86.8891 166.435 85.7015 163.959 84.5298 161.466C81.7957 155.645 81.7957 155.645 78.8125 149.922C78.664 149.643 78.5155 149.364 78.3625 149.076C77.0338 146.722 75.1951 145.348 72.5 144.316C71.4318 144.173 71.4318 144.173 70.2993 144.175C69.869 144.166 69.4387 144.157 68.9954 144.148C68.3054 144.14 68.3054 144.14 67.6016 144.132C67.1272 144.124 66.6528 144.115 66.164 144.106C64.6511 144.08 63.1381 144.059 61.625 144.039C60.5983 144.022 59.5716 144.004 58.5449 143.987C56.03 143.944 53.5151 143.907 51 143.872C50.6628 142.809 50.3301 141.745 50 140.68C49.8569 140.232 49.8569 140.232 49.7109 139.774C49.1886 138.076 49 136.781 49 134.991Z" fill="#F7F8F8"/>
<path fill-rule="evenodd" clip-rule="evenodd" d="M130.5 110.568C137.537 110.507 144.573 110.459 151.611 110.43C154.878 110.416 158.146 110.398 161.413 110.367C164.568 110.338 167.722 110.322 170.877 110.316C172.079 110.311 173.282 110.301 174.484 110.287C176.171 110.267 177.856 110.265 179.543 110.266C180.038 110.256 180.533 110.247 181.044 110.237C184.487 110.264 186.566 111.044 189 113.233C190 114.565 190 114.565 190 117.673C170.365 117.673 150.73 117.673 130.5 117.673C130.5 115.329 130.5 112.984 130.5 110.568Z" fill="#F6F6F7"/>
<path fill-rule="evenodd" clip-rule="evenodd" d="M124 121.226C124.165 121.226 124.33 121.226 124.5 121.226C124.501 121.487 124.501 121.749 124.502 122.019C124.521 128.402 124.55 134.784 124.592 141.167C124.612 144.253 124.628 147.34 124.635 150.427C124.643 153.407 124.66 156.386 124.684 159.366C124.692 160.502 124.696 161.638 124.696 162.773C124.697 164.367 124.711 165.96 124.727 167.553C124.725 168.021 124.722 168.488 124.719 168.969C124.785 173.115 126.122 176.077 129.219 179.171C130.155 180.001 130.155 180.001 132 181.172C123.75 181.172 115.5 181.172 107 181.172C107.743 180.733 107.743 180.733 108.5 180.284C109.122 179.849 109.737 179.404 110.344 178.952C110.655 178.723 110.966 178.494 111.287 178.258C112.117 177.665 112.117 177.665 112 176.732C111.505 176.732 111.01 176.732 110.5 176.732C110.82 176.393 111.139 176.054 111.469 175.705C112.909 174.038 113.092 172.699 113.281 170.654C113.323 170.213 113.365 169.771 113.408 169.317C113.438 168.979 113.469 168.642 113.5 168.295C113.665 168.295 113.83 168.295 114 168.295C114.165 169.174 114.33 170.053 114.5 170.959C114.586 170.451 114.671 169.942 114.76 169.419C115.08 167.522 115.403 165.627 115.727 163.731C115.866 162.912 116.005 162.094 116.143 161.275C116.342 160.094 116.544 158.913 116.746 157.733C116.807 157.37 116.867 157.008 116.929 156.634C117.292 154.541 117.824 152.567 118.5 150.533C118.623 149.893 118.727 149.25 118.803 148.604C118.849 148.242 118.896 147.88 118.944 147.507C118.993 147.113 119.043 146.72 119.094 146.314C119.785 141.219 120.783 136.182 121.812 131.133C121.892 130.745 121.971 130.356 122.052 129.955C122.279 128.838 122.508 127.721 122.738 126.604C122.808 126.267 122.877 125.93 122.948 125.582C123.253 124.117 123.582 122.668 124 121.226Z" fill="#B1BBC3"/>
<path fill-rule="evenodd" clip-rule="evenodd" d="M189.197 149.855C192.16 151.7 193.917 153.882 195.5 156.75C195.686 157.079 195.871 157.408 196.062 157.747C197.534 161.859 197.195 167.007 195 170.848C191.983 175.474 187.709 177.94 182 179.396C176.374 179.847 171.864 179.316 167.424 176.14C163.221 172.771 160.736 168.936 160.375 163.882C160.584 158.586 163.115 154.498 167.424 150.869C173.79 146.252 182.3 146.087 189.197 149.855ZM168.5 155.861C165.339 159.442 165.03 162.92 165.5 167.407C166.785 171.358 169.757 173.791 173.656 175.816C178.073 176.946 181.985 176.459 186 174.512C189.22 172.747 191.245 170.108 192.5 166.963C193.119 163.469 192.829 160.359 190.809 157.277C188.663 154.699 185.997 152.76 182.5 151.865C176.779 151.392 172.663 152.249 168.5 155.861Z" fill="#B5BEC7"/>
<path fill-rule="evenodd" clip-rule="evenodd" d="M68.5 64.8312C76.255 64.8312 84.01 64.8312 92 64.8312C94 69.2717 94 69.2717 95 73.2682C87.245 73.2682 79.49 73.2682 71.5 73.2682C68.5 65.7193 68.5 65.7193 68.5 64.8312Z" fill="#F5F6F6"/>
<path fill-rule="evenodd" clip-rule="evenodd" d="M130.5 164.742C138.42 164.742 146.34 164.742 154.5 164.742C156 170.959 156 170.959 156 172.735C147.585 172.735 139.17 172.735 130.5 172.735C130.5 170.098 130.5 167.46 130.5 164.742Z" fill="#9DA7B1"/>
<path fill-rule="evenodd" clip-rule="evenodd" d="M83.5 131.883C84.985 131.883 86.47 131.883 88 131.883C88.1154 132.301 88.2307 132.718 88.3496 133.149C89.6332 137.89 89.6332 137.89 93.3984 141.253C94.7438 141.74 95.9281 141.838 97.375 141.929C97.8674 141.963 98.3598 141.996 98.8672 142.03C99.241 142.052 99.6148 142.073 100 142.096C100.012 146.08 100.02 150.063 100.026 154.047C100.029 155.897 100.032 157.747 100.038 159.598C100.043 161.386 100.046 163.174 100.047 164.962C100.048 165.641 100.05 166.321 100.053 167C100.066 170.42 100.041 173.783 99.5 177.176C99.335 177.176 99.17 177.176 99 177.176C97.3683 170.125 96.0111 163.075 94.9381 155.941C94.4576 152.813 93.8724 149.716 93.0801 146.637C93.0104 146.341 92.9407 146.045 92.8689 145.74C92.309 143.696 91.5092 142.75 89.5 141.652C88.9012 141.541 88.3025 141.43 87.6855 141.315C86 140.764 86 140.764 85.1113 139.185C84.9029 138.55 84.71 137.91 84.5312 137.267C84.4278 136.947 84.3244 136.627 84.2178 136.297C83.7398 134.766 83.5 133.481 83.5 131.883Z" fill="#F8F9F9"/>
<path fill-rule="evenodd" clip-rule="evenodd" d="M182.5 63.9432C182.669 64.5717 182.835 65.2009 183 65.8304C183.093 66.1807 183.186 66.531 183.281 66.892C183.5 67.9396 183.5 67.9396 183.5 69.7158C183 69.7656 183 69.7656 182.49 69.8164C174.215 70.8649 168.367 75.5031 163.5 81.2611C162.798 82.1364 162.139 83.0123 161.5 83.9254C160.698 83.7129 159.896 83.5001 159.094 83.2871C158.647 83.1686 158.2 83.0501 157.74 82.928C156.823 82.6804 155.91 82.4186 155 82.1492C155.27 80.2008 156.053 79.0706 157.375 77.5145C157.882 76.9109 157.882 76.9109 158.398 76.2951C164.008 69.926 172.852 63.6673 182.5 63.9432Z" fill="#F2F3F4"/>
<path fill-rule="evenodd" clip-rule="evenodd" d="M57 119.449C60.3904 119.393 63.7807 119.354 67.1715 119.327C68.3254 119.316 69.4792 119.301 70.6329 119.282C72.2899 119.255 73.9463 119.242 75.6035 119.233C76.3794 119.215 76.3794 119.215 77.1709 119.198C78.4935 119.197 79.704 119.215 81 119.449C82.0345 120.472 82.0345 120.472 82.5 121.67C82.7784 122.201 83.0569 122.732 83.3438 123.279C84 124.778 84 124.778 84 126.11C75.75 126.11 67.5 126.11 59 126.11C57 120.337 57 120.337 57 119.449Z" fill="#F8F9F9"/>
<path fill-rule="evenodd" clip-rule="evenodd" d="M130.5 123.002C150.135 123.002 169.77 123.002 190 123.002C190 129.889 190 136.776 190 143.872C187.698 143.531 185.707 143.128 183.5 142.54C183.995 142.393 184.49 142.247 185 142.096C185 135.941 185 129.787 185 123.446C167.18 123.446 149.36 123.446 131 123.446C131 136.048 131 148.65 131 161.634C138.755 161.634 146.51 161.634 154.5 161.634C154.5 161.781 154.5 161.927 154.5 162.078C146.58 162.078 138.66 162.078 130.5 162.078C130.5 149.183 130.5 136.288 130.5 123.002Z" fill="#A6B0B8"/>
<path fill-rule="evenodd" clip-rule="evenodd" d="M209.5 75.4885C212.476 77.5274 213.355 80.3936 214.5 83.4814C214.625 83.8111 214.75 84.1408 214.879 84.4805C215.939 87.8744 215.581 91.5382 215.5 95.0267C212.035 94.8068 212.035 94.8068 208.5 94.5826C208.493 94.0829 208.486 93.5832 208.479 93.0683C208.352 88.8164 207.751 85.2542 206.029 81.2785C205.5 79.929 205.5 79.929 205.5 78.1528C206.375 77.3965 206.375 77.3965 207.5 76.7096C207.871 76.4783 208.243 76.2471 208.625 76.0088C208.914 75.8371 209.202 75.6654 209.5 75.4885Z" fill="#F7F8F8"/>
<path fill-rule="evenodd" clip-rule="evenodd" d="M186 63.9432C192.681 63.6009 198.846 65.7633 204.021 69.4747C205.21 70.4204 206.369 71.3803 207.5 72.3801C207.094 73.2405 207.094 73.2405 206.5 74.1563C206.005 74.3029 205.51 74.4494 205 74.6004C204.396 75.4885 204.396 75.4885 204 76.3766C202.411 75.7257 201.088 74.9178 199.688 73.9898C195.349 71.2805 191.216 70.3621 186 69.7158C186 67.8108 186 65.9059 186 63.9432Z" fill="#F3F5F5"/>
<path fill-rule="evenodd" clip-rule="evenodd" d="M149 94.5826C152.054 94.7664 154.279 95.2792 156.824 96.8757C157.871 98.1381 157.68 99.2581 157.656 100.799C157.654 101.349 157.652 101.898 157.65 102.464C157.5 103.908 157.5 103.908 156.5 105.24C155.147 105.391 155.147 105.391 153.449 105.37C152.54 105.363 152.54 105.363 151.613 105.357C150.978 105.346 150.342 105.335 149.688 105.323C149.048 105.317 148.409 105.311 147.75 105.305C146.166 105.289 144.583 105.267 143 105.24C143.287 103.663 143.742 102.459 144.625 101.07C144.958 100.543 144.958 100.543 145.297 100.005C145.529 99.6442 145.761 99.2836 146 98.9121C146.232 98.5446 146.464 98.1771 146.703 97.7985C148.416 95.1015 148.416 95.1015 149 94.5826Z" fill="#ACB3BC"/>
<path fill-rule="evenodd" clip-rule="evenodd" d="M189.197 149.855C192.497 151.91 194.225 154.485 196 157.638C196.035 158.322 196.042 159.007 196.031 159.691C196.027 160.054 196.022 160.417 196.018 160.791C196.012 161.069 196.006 161.348 196 161.634C194.667 160.548 194.15 159.547 193.463 158.064C191.517 154.404 188.283 151.97 184.086 150.472C180.196 149.532 175.846 149.502 172.188 151.088C171.447 151.478 170.716 151.883 170 152.309C169.536 152.575 169.072 152.84 168.594 153.114C167.078 154.46 166.039 155.98 165 157.638C164.823 157.901 164.646 158.164 164.463 158.436C163.813 159.81 163.653 161.158 163.438 162.633C163.312 163.475 163.312 163.475 163.184 164.333C163.123 164.761 163.062 165.189 163 165.631C162.031 165.88 162.031 165.88 161 166.075C160.5 165.631 160.5 165.631 160.406 164.076C160.515 159.126 162.588 155.327 166.406 151.726C172.78 146.359 181.811 145.82 189.197 149.855Z" fill="#EDEFF0"/>
<path fill-rule="evenodd" clip-rule="evenodd" d="M172.25 129.968C174 130.107 174 130.107 175.5 130.995C175.753 132.726 175.772 133.716 174.719 135.213C173.5 135.879 173.5 135.879 171.656 135.796C170 135.435 170 135.435 169.5 134.991C168.687 134.937 167.872 134.912 167.057 134.9C166.536 134.891 166.016 134.882 165.479 134.873C164.913 134.866 164.347 134.858 163.764 134.851C163.187 134.841 162.611 134.832 162.017 134.823C160.168 134.793 158.318 134.767 156.469 134.741C155.218 134.722 153.968 134.703 152.718 134.683C149.645 134.636 146.573 134.59 143.5 134.547C143.5 133.668 143.5 132.789 143.5 131.883C143.816 131.88 144.132 131.878 144.458 131.875C147.743 131.846 151.028 131.809 154.312 131.766C155.539 131.751 156.765 131.739 157.992 131.729C159.753 131.714 161.514 131.691 163.275 131.666C163.825 131.663 164.375 131.66 164.942 131.657C165.453 131.649 165.963 131.64 166.489 131.631C166.939 131.626 167.388 131.621 167.852 131.616C169.849 131.308 170.074 130.14 172.25 129.968Z" fill="#EBECEC"/>
<path fill-rule="evenodd" clip-rule="evenodd" d="M131 165.187C138.755 165.187 146.51 165.187 154.5 165.187C154.5 166.505 154.5 167.824 154.5 169.183C146.745 169.183 138.99 169.183 131 169.183C131 167.864 131 166.545 131 165.187Z" fill="#F6F7F7"/>
<path fill-rule="evenodd" clip-rule="evenodd" d="M151.5 85.4518C155.956 85.6835 159.898 87.4618 163.5 89.6981C163.242 91.6654 162.689 92.9205 161.5 94.5826C161.102 94.4006 160.703 94.2186 160.293 94.031C159.763 93.7918 159.233 93.5525 158.688 93.306C158.165 93.069 157.643 92.832 157.105 92.5879C154.587 91.5377 152.338 90.9331 149.562 90.7527C149.079 90.7195 148.596 90.6863 148.098 90.6521C147.735 90.6303 147.373 90.6086 147 90.5862C148.704 85.5802 148.704 85.5802 151.5 85.4518Z" fill="#ACB5BD"/>
<path fill-rule="evenodd" clip-rule="evenodd" d="M207.5 97.6909C210.219 97.5943 212.435 97.6446 215 98.579C214.541 102.731 212.864 105.705 210.5 109.236C208.636 108.684 207.863 107.812 206.5 106.572C205.844 106.115 205.182 105.666 204.5 105.24C205.427 102.7 206.466 100.197 207.5 97.6909Z" fill="#B0B9C3"/>
<path fill-rule="evenodd" clip-rule="evenodd" d="M175 69.2717C175.33 70.0044 175.66 70.7371 176 71.492C175.537 71.7187 175.537 71.7187 175.064 71.9499C169.008 75.028 165.335 78.8634 161.5 83.9254C159.025 83.266 159.025 83.266 156.5 82.5932C157.16 82.3001 157.82 82.0071 158.5 81.7051C159.306 80.7057 159.306 80.7057 160.031 79.5126C163.148 74.9923 168.56 69.2717 175 69.2717Z" fill="#B7C0C8"/>
<path fill-rule="evenodd" clip-rule="evenodd" d="M179.998 159.645C181.912 160.052 182.716 160.738 184 162.078C184.317 163.83 184.184 164.818 183.375 166.435C182.047 167.91 181.124 168.224 179.031 168.461C177.121 168.254 176.347 167.715 175 166.519C174.394 164.903 174.302 163.776 174.5 162.078C175.984 160.143 177.311 159.477 179.998 159.645Z" fill="#0C1B2E"/>
<path fill-rule="evenodd" clip-rule="evenodd" d="M131 43.5168C131.495 43.5168 131.99 43.5168 132.5 43.5168C133.232 44.2627 133.232 44.2627 133.969 45.2375C135.005 46.6073 135.768 47.326 137.5 47.9573C137.438 48.7067 137.438 48.7067 137 49.7335C136.26 50.2909 135.517 50.8469 134.75 51.3744C133.716 52.1731 133.122 53.1002 132.5 54.174C131.594 54.0908 131.594 54.0908 130.5 53.73C130.283 53.4003 130.067 53.0706 129.844 52.7309C128.695 51.0689 127.325 50.36 125.5 49.2895C126 47.9573 126 47.9573 127.406 47.1525C129.133 46.1002 129.863 45.0494 131 43.5168Z" fill="#0B192C"/>
<path fill-rule="evenodd" clip-rule="evenodd" d="M119 25.3109C119.875 25.3664 119.875 25.3664 121 25.7549C121.667 26.643 122.333 27.5311 123 28.4192C123.961 29.1106 124.931 29.6343 126 30.1954C125.5 31.5275 125.5 31.5275 124.094 32.3324C122.284 33.4357 121.599 34.3163 120.5 35.968C118.609 35.2964 118.609 35.2964 118.094 34.2751C117.287 32.9552 116.146 32.4196 114.73 31.6368C114.489 31.4542 114.248 31.2716 114 31.0835C114 30.6439 114 30.2043 114 29.7513C114.454 29.4858 114.908 29.2202 115.375 28.9465C117.219 27.8443 117.889 26.9805 119 25.3109Z" fill="#0F1D2D"/>
<path fill-rule="evenodd" clip-rule="evenodd" d="M46.5 90.5861C47.7867 91.7288 49.0719 92.8717 50.3438 94.0275C51.3931 95.0352 51.3931 95.0352 52.5 95.4707C52.2212 97.041 51.6792 97.6388 50.2812 98.6068C49.0436 99.4719 48.3979 100.047 47.5 101.243C46.5938 101.16 46.5938 101.16 45.5 100.799C45.2731 100.46 45.0463 100.122 44.8125 99.7724C43.8095 98.2992 42.6444 97.679 41 96.8028C41.0938 95.998 41.0938 95.998 41.5 95.0266C41.8713 94.8343 42.2425 94.642 42.625 94.4438C44.4964 93.424 45.2946 92.2071 46.5 90.5861Z" fill="#0F1B2C"/>
<path fill-rule="evenodd" clip-rule="evenodd" d="M209.5 75.4885C212.476 77.5274 213.355 80.3936 214.5 83.4814C214.625 83.8111 214.75 84.1408 214.879 84.4805C215.939 87.8744 215.581 91.5382 215.5 95.0267C212.035 94.8068 212.035 94.8068 208.5 94.5826C208.5 94.4361 208.5 94.2895 208.5 94.1386C209.82 94.1386 211.14 94.1386 212.5 94.1386C212.265 88.1301 211.76 82.6552 208.5 77.2647C208.5 76.8251 208.5 76.3854 208.5 75.9325C208.83 75.786 209.16 75.6394 209.5 75.4885Z" fill="#B3BCC2"/>
<path fill-rule="evenodd" clip-rule="evenodd" d="M201 107.46C203.46 107.99 204.733 109.381 206.371 110.981C207 111.901 207 111.901 206.955 112.813C206.404 113.859 205.783 114.387 204.781 115.12C204.473 115.351 204.164 115.582 203.846 115.821C203 116.341 203 116.341 202 116.341C201.299 115.611 201.299 115.611 200.531 114.648C199.597 113.483 198.671 112.44 197.5 111.456C198.278 109.762 199.518 108.707 201 107.46Z" fill="#AFBAC3"/>
<path fill-rule="evenodd" clip-rule="evenodd" d="M149 94.5826C150.155 94.7291 151.31 94.8757 152.5 95.0266C152.175 97.1004 151.264 98.7963 150.25 100.661C150.009 101.111 150.009 101.111 149.764 101.57C149.186 102.65 148.602 103.727 148 104.796C146.515 104.796 145.03 104.796 143.5 104.796C143.721 102.178 145.019 100.371 146.531 98.1905C146.767 97.8425 147.004 97.4944 147.247 97.1359C147.827 96.2824 148.412 95.4315 149 94.5826Z" fill="#F2F4F4"/>
<path fill-rule="evenodd" clip-rule="evenodd" d="M83.5 131.883C84.985 131.883 86.47 131.883 88 131.883C88.1212 132.301 88.2423 132.718 88.3672 133.149C88.5348 133.702 88.7023 134.255 88.875 134.825C89.0374 135.371 89.1998 135.917 89.3672 136.479C90.0351 138.189 90.8065 139.316 92 140.764C91.505 141.203 91.01 141.643 90.5 142.096C88.7071 142.013 87.4567 141.713 86 140.764C84.3631 138.151 83.5 134.835 83.5 131.883Z" fill="#EFF1F1"/>
<path fill-rule="evenodd" clip-rule="evenodd" d="M116.5 145.204C116.665 145.204 116.83 145.204 117 145.204C117.114 146.115 117.228 147.026 117.342 147.936C117.409 148.762 117.409 148.762 118 149.201C118.33 148.908 118.66 148.615 119 148.313C118.571 151.692 117.921 155.035 117.281 158.387C117.063 159.536 116.845 160.685 116.627 161.834C116.521 162.391 116.414 162.948 116.305 163.522C115.919 165.626 115.588 167.736 115.271 169.849C115 170.959 115 170.959 114 171.847C113.949 168.632 114.072 165.473 114.406 162.272C114.449 161.845 114.492 161.417 114.537 160.976C115.084 155.708 115.787 150.456 116.5 145.204Z" fill="#DDE0E1"/>
<path fill-rule="evenodd" clip-rule="evenodd" d="M106 161.19C106.165 161.19 106.33 161.19 106.5 161.19C106.51 161.49 106.52 161.789 106.53 162.098C106.578 163.479 106.633 164.86 106.688 166.241C106.703 166.712 106.718 167.183 106.734 167.669C106.811 172.067 106.811 172.067 108 176.288C108.902 176.937 108.902 176.937 110 177.176C111.617 176.606 111.617 176.606 113 175.844C112.325 178.11 110.681 179.502 108.5 180.728C107.263 180.948 107.263 180.948 106 181.172C106 174.578 106 167.984 106 161.19Z" fill="#DEE1E3"/>
<path fill-rule="evenodd" clip-rule="evenodd" d="M83 123.446C84 124.778 84 124.778 84 126.11C75.75 126.11 67.5 126.11 59 126.11C59 125.964 59 125.817 59 125.666C66.755 125.52 74.51 125.373 82.5 125.222C82.665 124.636 82.83 124.05 83 123.446Z" fill="#F1F3F5"/>
<path fill-rule="evenodd" clip-rule="evenodd" d="M115 160.302C116 161.19 116 161.19 116.125 162.883C115.939 170.125 115.939 170.125 114 171.847C113.834 167.912 114.339 164.184 115 160.302Z" fill="#EFF1F2"/>
<path fill-rule="evenodd" clip-rule="evenodd" d="M99.5 164.742C99.665 164.742 99.83 164.742 100 164.742C100.014 166.065 100.023 167.388 100.031 168.711C100.035 169.08 100.04 169.449 100.044 169.829C100.055 172.314 99.8558 174.71 99.5 177.176C99.335 177.176 99.17 177.176 99 177.176C98.3104 174.377 97.7944 172.003 98.5 169.183C98.665 169.183 98.83 169.183 99 169.183C99.165 167.718 99.33 166.252 99.5 164.742Z" fill="#D5D9DC"/>
<path fill-rule="evenodd" clip-rule="evenodd" d="M115 156.75C115.66 156.75 116.32 156.75 117 156.75C116.835 158.655 116.67 160.56 116.5 162.522C116.17 162.083 115.84 161.643 115.5 161.19C115.335 161.923 115.17 162.655 115 163.41C114.835 163.41 114.67 163.41 114.5 163.41C114.455 161.123 114.577 159.006 115 156.75Z" fill="#D5DADD"/>
<path fill-rule="evenodd" clip-rule="evenodd" d="M177 150.089C176.34 150.675 175.68 151.261 175 151.865C175.33 151.718 175.66 151.572 176 151.421C176.77 151.39 177.542 151.383 178.312 151.393C178.925 151.399 178.925 151.399 179.551 151.405C180.021 151.413 180.021 151.413 180.5 151.421C180.5 151.567 180.5 151.714 180.5 151.865C177.86 152.158 175.22 152.451 172.5 152.753C173 150.533 173 150.533 173.906 149.922C175.153 149.606 175.794 149.706 177 150.089Z" fill="#C9CFD3"/>
<path fill-rule="evenodd" clip-rule="evenodd" d="M113.5 168.295C113.665 168.295 113.83 168.295 114 168.295C114.112 169.21 114.214 170.126 114.312 171.042C114.371 171.552 114.429 172.062 114.488 172.588C114.5 174.104 114.336 174.974 113.5 176.288C111.938 176.871 111.938 176.871 110.5 177.176C110.82 176.764 111.139 176.352 111.469 175.927C112.788 174.116 113.085 172.765 113.281 170.654C113.323 170.213 113.365 169.771 113.408 169.317C113.438 168.979 113.469 168.642 113.5 168.295Z" fill="#CFD4D8"/>
<path fill-rule="evenodd" clip-rule="evenodd" d="M91.5 169.627C91.665 169.627 91.83 169.627 92 169.627C92.1689 170.617 92.335 171.607 92.5 172.597C92.5928 173.148 92.6856 173.699 92.7812 174.267C92.9605 175.559 93.0447 176.766 93 178.064C91.796 176.995 91.4962 176.1 90.9375 174.678C90.7609 174.233 90.5843 173.787 90.4023 173.329C90.2696 172.986 90.1368 172.644 90 172.291C90.495 172.291 90.99 172.291 91.5 172.291C91.5 171.412 91.5 170.533 91.5 169.627Z" fill="#C1C5C9"/>
<path fill-rule="evenodd" clip-rule="evenodd" d="M165.5 69.7158C165.83 69.8624 166.16 70.0089 166.5 70.1599C164.19 72.2114 161.88 74.2629 159.5 76.3766C159.17 76.23 158.84 76.0835 158.5 75.9325C160.664 73.6305 162.883 71.6132 165.5 69.7158Z" fill="#DFE3E5"/>
<path fill-rule="evenodd" clip-rule="evenodd" d="M110 146.98C110.165 146.98 110.33 146.98 110.5 146.98C111.259 152.606 111.259 152.606 110 154.973C109.835 154.973 109.67 154.973 109.5 154.973C109.748 151.017 109.748 151.017 110 146.98Z" fill="#3D4453"/>
<path fill-rule="evenodd" clip-rule="evenodd" d="M123.5 123.002C123.665 123.002 123.83 123.002 124 123.002C124 125.053 124 127.105 124 129.218C123.505 129.365 123.01 129.512 122.5 129.663C122.571 128.885 122.644 128.108 122.719 127.331C122.759 126.899 122.8 126.466 122.842 126.02C122.975 124.971 123.177 124.015 123.5 123.002Z" fill="#C3C9CF"/>
<path fill-rule="evenodd" clip-rule="evenodd" d="M177 68.8277C177 69.1208 177 69.4139 177 69.7158C177.33 70.0089 177.66 70.302 178 70.6039C177.175 70.7505 176.35 70.897 175.5 71.048C175.438 70.7641 175.376 70.4801 175.312 70.1876C175.158 69.7343 175.158 69.7343 175 69.2718C174.67 69.1252 174.34 68.9787 174 68.8277C175.245 68.2747 175.705 68.4828 177 68.8277Z" fill="#DCE1E3"/>
</svg>
